<svg width="25" height="14" viewBox="0 0 25 14" fill="none" xmlns="http://www.w3.org/2000/svg">
<path d="M12.4812 13.9953C12.0813 13.9962 11.6938 13.8335 11.386 13.5355L1.11821 3.54068C0.768734 3.20137 0.548962 2.7138 0.507241 2.18522C0.465521 1.65664 0.605268 1.13035 0.89574 0.72213C1.18621 0.313908 1.60362 0.0571929 2.05613 0.00845866C2.50864 -0.0402756 2.95919 0.122963 3.30866 0.462265L12.4812 9.41764L21.6537 0.782101C21.8287 0.616055 22.0302 0.492055 22.2464 0.417231C22.4626 0.342406 22.6893 0.318231 22.9135 0.346095C23.1377 0.373959 23.355 0.453311 23.5529 0.579594C23.7508 0.705876 23.9254 0.876598 24.0666 1.08195C24.2233 1.28748 24.342 1.52861 24.4153 1.79022C24.4885 2.05183 24.5147 2.32829 24.4922 2.60228C24.4697 2.87626 24.399 3.14187 24.2846 3.38246C24.1701 3.62305 24.0143 3.83343 23.827 4.00044L13.5593 13.6554C13.2426 13.9063 12.863 14.026 12.4812 13.9953Z" fill="black"/>
</svg>
